<?xml version="1.0" encoding="utf-8"?>
<!-- Generator: Adobe Illustrator 21.1.0, SVG Export Plug-In . SVG Version: 6.00 Build 0)  -->
<svg version="1.1" id="Layer_1" xmlns="http://www.w3.org/2000/svg" xmlns:xlink="http://www.w3.org/1999/xlink" x="0px" y="0px"
	 viewBox="0 0 792 612" style="enable-background:new 0 0 792 612;" xml:space="preserve">
<path d="M260,553.6c-6.5,0-13-2.5-18-7.4l-69.4-68.8c-4.8-4.8-7.5-11.2-7.6-18.1c0-6.9,2.6-13.3,7.4-18.1l266.8-269.2
	c4.8-4.8,11.2-7.5,18.1-7.6c6.9,0,13.3,2.6,18.1,7.4l69.4,68.8c10,9.9,10.1,26.2,0.2,36.2L278.2,546
	C273.2,551,266.6,553.6,260,553.6z M457.5,172.4C457.4,172.4,457.4,172.4,457.5,172.4c-4.8,0-9.2,1.9-12.5,5.2L178.1,446.7
	c-6.8,6.9-6.8,18.1,0.1,24.9l69.4,68.8c6.9,6.8,18.1,6.8,24.9-0.1l266.8-269.2c6.8-6.9,6.8-18.1-0.1-24.9l-69.4-68.8
	C466.5,174.2,462.1,172.4,457.5,172.4z"/>
<path d="M536.2,238.7c-2.9,0-5.7-1.1-7.9-3.2l-43.5-43.2c-2.1-2.1-3.3-4.9-3.3-7.9c0-3,1.1-5.8,3.2-7.9l9.9-10
	c2.1-2.1,4.9-3.3,7.9-3.3c3,0,5.8,1.1,7.9,3.2l43.5,43.2c2.1,2.1,3.3,4.9,3.3,7.9c0,3-1.1,5.8-3.2,7.9l-9.9,10
	C542,237.6,539.1,238.7,536.2,238.7z M502.6,171.1C502.6,171.1,502.6,171.1,502.6,171.1c-0.9,0-1.7,0.3-2.3,0.9l-9.9,10
	c-0.6,0.6-0.9,1.4-0.9,2.3s0.3,1.7,0.9,2.3l43.5,43.2c1.3,1.2,3.3,1.2,4.5,0l9.9-10c0.6-0.6,0.9-1.4,0.9-2.3s-0.3-1.7-0.9-2.3
	L504.8,172C504.2,171.5,503.4,171.1,502.6,171.1z"/>
<path d="M599.2,169.1c-3,0-5.8-1.1-7.9-3.2l-37.6-37.3c-2.1-2.1-3.3-4.9-3.3-7.9c0-3,1.1-5.8,3.2-7.9l9.9-10
	c2.1-2.1,4.9-3.3,7.9-3.3c0,0,0,0,0.1,0c3,0,5.8,1.1,7.9,3.2L617,140c4.4,4.3,4.4,11.5,0.1,15.8l-9.9,10
	C605.1,168,602.3,169.1,599.2,169.1C599.3,169.1,599.2,169.1,599.2,169.1z M571.5,107.5C571.5,107.5,571.5,107.5,571.5,107.5
	c-0.9,0-1.7,0.3-2.3,0.9l-9.9,10c-0.6,0.6-0.9,1.4-0.9,2.3s0.3,1.7,0.9,2.3l37.6,37.3c0.6,0.6,1.4,0.9,2.3,0.9c0,0,0,0,0,0
	c0.9,0,1.7-0.3,2.3-0.9l9.9-10c1.2-1.3,1.2-3.3,0-4.5l-37.6-37.3C573.2,107.8,572.4,107.5,571.5,107.5z"/>
<path d="M421.1,334c-3,0-5.8-1.1-7.9-3.2l-23.8-23.6c-2.1-2.1-3.3-4.9-3.3-7.9c0-3,1.1-5.8,3.2-7.9l68.7-69.3
	c2.1-2.1,4.9-3.3,7.9-3.3c0,0,0,0,0.1,0c3,0,5.8,1.1,7.9,3.2l23.8,23.6c2.1,2.1,3.3,4.9,3.3,7.9c0,3-1.1,5.8-3.2,7.9L429,330.7
	C426.9,332.9,424.1,334,421.1,334C421.1,334,421.1,334,421.1,334z M466,226.8C466,226.8,466,226.8,466,226.8c-0.9,0-1.7,0.3-2.3,0.9
	L395,297c-0.6,0.6-0.9,1.4-0.9,2.3s0.3,1.7,0.9,2.3l23.8,23.6c0.6,0.6,1.4,0.9,2.3,0.9c0,0,0,0,0,0c0.9,0,1.7-0.3,2.3-0.9l68.7-69.3
	c0.6-0.6,0.9-1.4,0.9-2.3s-0.3-1.7-0.9-2.3l-23.8-23.6C467.6,227.1,466.8,226.8,466,226.8z"/>
<path d="M312.1,435.5c-7.4,0-14.4-2.9-19.7-8.1c-5.3-5.3-8.2-12.3-8.3-19.7c0-7.5,2.8-14.5,8.1-19.8s12.3-8.2,19.7-8.3
	c0,0,0.1,0,0.1,0c7.4,0,14.4,2.9,19.7,8.1c5.3,5.3,8.2,12.3,8.3,19.7c0,7.5-2.8,14.5-8.1,19.8c-5.3,5.3-12.3,8.2-19.7,8.3
	C312.2,435.5,312.1,435.5,312.1,435.5z M312.1,387.6C312.1,387.6,312,387.6,312.1,387.6c-5.4,0-10.4,2.1-14.2,5.9
	c-3.8,3.8-5.8,8.8-5.8,14.1c0,5.3,2.1,10.3,5.9,14.1c3.8,3.8,8.8,5.8,14.1,5.8c5.3,0,10.3-2.1,14.1-5.9c3.8-3.8,5.8-8.8,5.8-14.1
	s-2.1-10.3-5.9-14.1C322.4,389.7,317.4,387.6,312.1,387.6z"/>
<path d="M526.1,163.1c-1,0-2-0.4-2.8-1.2c-1.6-1.6-1.6-4.1,0-5.7l31.8-32.1c1.6-1.6,4.1-1.6,5.7,0c1.6,1.6,1.6,4.1,0,5.7l-31.8,32.1
	C528.1,162.7,527.1,163.1,526.1,163.1z"/>
<path d="M560.1,196.9c-1,0-2-0.4-2.8-1.2c-1.6-1.6-1.6-4.1,0-5.7L589,158c1.6-1.6,4.1-1.6,5.7,0c1.6,1.6,1.6,4.1,0,5.7l-31.8,32.1
	C562.2,196.5,561.1,196.9,560.1,196.9z"/>
<path d="M396.6,426.6L290.8,321.7l38.4-38.7L435,387.9L396.6,426.6z M302.1,321.6l94.4,93.6l27.1-27.4l-94.4-93.6L302.1,321.6z"/>
</svg>
